{"title":"The Prestige 2006 1080p BluRay x264 English Hindi ESub [MW]","magnet":"magnet:?xt=urn:btih:2d61f36fd54aea90173df7700ed1c48f55fdd080&dn=The+Prestige+2006+1080p+BluRay+x264+English+Hindi+ESub+%5BMW%5D&tr=udp%3A%2F%2Ftracker.leechers-paradise.org%3A6969&tr=udp%3A%2F%2Fzer0day.ch%3A1337&tr=udp%3A%2F%2Fopen.demonii.com%3A1337&tr=udp%3A%2F%2Ftracker.coppersurfer.tk%3A6969&tr=udp%3A%2F%2Fexodus.desync.com%3A6969","uploader":"MFreaky","categoryP":"video","categoryS":"hd___movies","size":"2885333776","seeders":"19","leechers":"41","description":" <a href=\"https://pichub.site/image/aFBaB\" rel=\"nofollow\" target=\"_NEW\">https://pichub.site/image/aFBaB</a> <a href=\"\nhttps://pichub.site/image/aFg56\" rel=\"nofollow\" target=\"_NEW\">\nhttps://pichub.site/image/aFg56</a> <a href=\"\nhttps://pichub.site/image/aFmqt\" rel=\"nofollow\" target=\"_NEW\">\nhttps://pichub.site/image/aFmqt</a> <a href=\"\nhttps://pichub.site/image/aFGy4\" rel=\"nofollow\" target=\"_NEW\">\nhttps://pichub.site/image/aFGy4</a> <a href=\"\nhttps://pichub.site/image/aFN0p\" rel=\"nofollow\" target=\"_NEW\">\nhttps://pichub.site/image/aFN0p</a>\r\n\r\nGeneral\r\nFormat : Matroska\r\nFormat version : Version 4 / Version 2\r\nFile size : 2.69 GiB\r\nDuration : 2 h 10 min\r\nOverall bit rate : 2 948 kb/s\r\n\r\nVideo\r\nID : 1\r\nFormat : AVC\r\nFormat/Info : Advanced Video Codec\r\nFormat profile : High@L4.1\r\nFormat settings : CABAC / 4 Ref Frames\r\nFormat settings, CABAC : Yes\r\nFormat settings, RefFrames : 4 frames\r\nCodec ID : V_MPEG4/ISO/AVC\r\nDuration : 2 h 10 min\r\nBit rate : 2 500 kb/s\r\nWidth : 1 920 pixels\r\nHeight : 818 pixels\r\nDisplay aspect ratio : 2.35:1\r\nFrame rate mode : Constant\r\nFrame rate : 23.976 (23976/1000) FPS\r\nColor space : YUV\r\nChroma subsampling : 4:2:0\r\nBit depth : 8 bits\r\nScan type : Progressive\r\nBits/(Pixel*Frame) : 0.066\r\nStream size : 2.28 GiB (85%)\r\nWriting library : x264 core 152 r2851M ba24899\r\nDefault : Yes\r\nForced : No\r\n\r\nAudio #1\r\nID : 2\r\nFormat : AC-3\r\nFormat/Info : Audio Coding 3\r\nCodec ID : A_AC3\r\nDuration : 2 h 10 min\r\nBit rate mode : Constant\r\nBit rate : 224 kb/s\r\nChannel(s) : 2 channels\r\nChannel positions : Front: L R\r\nSampling rate : 48.0 kHz\r\nFrame rate : 31.250 FPS (1536 SPF)\r\nBit depth : 16 bits\r\nCompression mode : Lossy\r\nStream size : 209 MiB (8%)\r\nLanguage : Hindi\r\nService kind : Complete Main\r\nDefault : Yes\r\nForced : No\r\n\r\nAudio #2\r\nID : 3\r\nFormat : AC-3\r\nFormat/Info : Audio Coding 3\r\nCodec ID : A_AC3\r\nDuration : 2 h 10 min\r\nBit rate mode : Constant\r\nBit rate : 224 kb/s\r\nChannel(s) : 6 channels\r\nChannel positions : Front: L C R, Side: L R, LFE\r\nSampling rate : 48.0 kHz\r\nFrame rate : 31.250 FPS (1536 SPF)\r\nBit depth : 16 bits\r\nCompression mode : Lossy\r\nStream size : 209 MiB (8%)\r\nLanguage : English\r\nService kind : Complete Main\r\nDefault : No\r\nForced : No\r\n\r\nText\r\nID : 4\r\nFormat : UTF-8\r\nCodec ID : S_TEXT/UTF8\r\nCodec ID/Info : UTF-8 Plain Text\r\nDuration : 2 h 4 min\r\nBit rate : 65 b/s\r\nCount of elements : 1707\r\nStream size : 59.1 KiB (0%)\r\nDefault : Yes\r\nForced : No","last_updated":"2018-07-19T12:08:48.428Z","parsed":{"xt":"urn:btih:2d61f36fd54aea90173df7700ed1c48f55fdd080","dn":"The Prestige 2006 1080p BluRay x264 English Hindi ESub [MW]","tr":["udp://exodus.desync.com:6969","udp://open.demonii.com:1337","udp://tracker.coppersurfer.tk:6969","udp://tracker.leechers-paradise.org:6969","udp://zer0day.ch:1337"],"infoHash":"2d61f36fd54aea90173df7700ed1c48f55fdd080","infoHashBuffer":{"type":"Buffer","data":[45,97,243,111,213,74,234,144,23,61,247,112,14,209,196,143,85,253,208,128]},"name":"The Prestige 2006 1080p BluRay x264 English Hindi ESub [MW]","announce":["udp://exodus.desync.com:6969","udp://open.demonii.com:1337","udp://tracker.coppersurfer.tk:6969","udp://tracker.leechers-paradise.org:6969","udp://zer0day.ch:1337"],"urlList":[]}}